<svg xmlns="http://www.w3.org/2000/svg" xmlns:xlink="http://www.w3.org/1999/xlink" viewBox="0 0 510 357"><defs><style>.cls-1{fill:url(#radial-gradient);}.cls-2{fill:url(#radial-gradient-2);}.cls-3{fill:url(#radial-gradient-3);}.cls-4{fill:url(#radial-gradient-4);}.cls-5{fill:url(#radial-gradient-5);}.cls-6{fill:url(#radial-gradient-6);}.cls-7{fill:url(#radial-gradient-7);}.cls-8{fill:url(#radial-gradient-8);}.cls-9{fill:url(#radial-gradient-9);}.cls-10{fill:#0a0a0a;}.cls-11{fill:url(#radial-gradient-10);}.cls-12{fill:url(#radial-gradient-11);}.cls-13{fill:url(#radial-gradient-12);}.cls-14{fill:url(#radial-gradient-13);}.cls-15{fill:url(#radial-gradient-14);}.cls-16{fill:url(#radial-gradient-15);}.cls-17{fill:url(#radial-gradient-16);}.cls-18{fill:#ed1e79;}.cls-19{fill:url(#radial-gradient-17);}.cls-20{fill:#9e005d;}.cls-21{fill:url(#radial-gradient-18);}</style><radialGradient id="radial-gradient" cx="68.5" cy="78.5" r="70.53" gradientUnits="userSpaceOnUse"><stop offset="0" stop-color="#545454"/><stop offset="0.2" stop-color="#4e4e4e"/><stop offset="0.47" stop-color="#3e3e3e"/><stop offset="0.78" stop-color="#232323"/><stop offset="1" stop-color="#0a0a0a"/></radialGradient><radialGradient id="radial-gradient-2" cx="436.5" cy="73.5" r="73.5" xlink:href="#radial-gradient"/><radialGradient id="radial-gradient-3" cx="76.5" cy="88.5" r="51.5" xlink:href="#radial-gradient"/><radialGradient id="radial-gradient-4" cx="436.5" cy="84.5" r="49.5" xlink:href="#radial-gradient"/><radialGradient id="radial-gradient-5" cx="253" cy="199.95" r="208.17" gradientUnits="userSpaceOnUse"><stop offset="0" stop-color="#fff"/><stop offset="0.11" stop-color="#f3f3f3"/><stop offset="0.71" stop-color="#b2b2b2"/><stop offset="1" stop-color="#999"/></radialGradient><radialGradient id="radial-gradient-6" cx="173.45" cy="178.3" r="67.88" xlink:href="#radial-gradient"/><radialGradient id="radial-gradient-7" cx="340.11" cy="244.87" r="39.5" gradientTransform="translate(-226.15 -109.72) scale(1.18 1.18)" xlink:href="#radial-gradient"/><radialGradient id="radial-gradient-8" cx="248.7" cy="213.28" r="39.5" gradientTransform="translate(-92.84 -51.28) scale(1.08 1.07)" xlink:href="#radial-gradient-5"/><radialGradient id="radial-gradient-9" cx="-49.89" cy="118.8" r="39.5" gradientTransform="translate(221.07 76.03) scale(0.83 0.86)" gradientUnits="userSpaceOnUse"><stop offset="0" stop-color="#29abe2"/><stop offset="0.29" stop-color="#27a8e0"/><stop offset="0.53" stop-color="#1f9dd9"/><stop offset="0.77" stop-color="#128bcd"/><stop offset="0.99" stop-color="#0172bd"/><stop offset="1" stop-color="#0071bc"/></radialGradient><radialGradient id="radial-gradient-10" cx="179" cy="171" r="9" xlink:href="#radial-gradient-5"/><radialGradient id="radial-gradient-11" cx="2428.53" cy="34.87" r="67.88" gradientTransform="matrix(-0.99, 0.13, 0.13, 0.99, 2743.65, -178.9)" xlink:href="#radial-gradient"/><radialGradient id="radial-gradient-12" cx="2252.02" cy="122.8" r="39.5" gradientTransform="matrix(-1.18, 0, 0, 1.17, 2994.87, 26.64)" xlink:href="#radial-gradient"/><radialGradient id="radial-gradient-13" cx="2342.7" cy="79.86" r="39.5" gradientTransform="matrix(-1.08, 0, 0, 1.08, 2861.55, 85.09)" xlink:href="#radial-gradient-5"/><radialGradient id="radial-gradient-14" cx="2656.2" cy="-47.5" r="39.5" gradientTransform="matrix(-0.83, 0, 0, 0.86, 2547.75, 212.98)" xlink:href="#radial-gradient-9"/><radialGradient id="radial-gradient-15" cx="2434.07" cy="27.57" r="9" gradientTransform="matrix(-0.99, 0.13, 0.13, 0.99, 2743.65, -178.9)" xlink:href="#radial-gradient-5"/><radialGradient id="radial-gradient-16" cx="2371.02" cy="-27.88" r="26.8" gradientTransform="matrix(-0.96, 0.29, 0.29, 0.96, 2574.45, -377.32)" xlink:href="#radial-gradient"/><radialGradient id="radial-gradient-17" cx="199.01" cy="354.01" r="26.8" gradientTransform="translate(41.42 -75.89) rotate(3.14)" xlink:href="#radial-gradient"/><radialGradient id="radial-gradient-18" cx="302.57" cy="141.56" r="33.61" gradientTransform="translate(-59.73 154.88) rotate(-6.17)" xlink:href="#radial-gradient"/></defs><title>Asset 1</title><g id="Layer_2" data-name="Layer 2"><g id="Layer_1-2" data-name="Layer 1"><ellipse class="cls-1" cx="68.5" cy="78.5" rx="68.5" ry="72.5"/><circle class="cls-2" cx="436.5" cy="73.5" r="73.5"/><circle class="cls-3" cx="76.5" cy="88.5" r="51.5"/><circle class="cls-4" cx="436.5" cy="84.5" r="49.5"/><path class="cls-5" d="M502,244c0,85.6-111.48,113-249,113S4,329.6,4,244,70,54,262,47C449,17,502,158.4,502,244Z"/><path class="cls-6" d="M233,177.5c-9,39-28.3,63.59-60.5,72.5-35.35,9.78-63.19-18.9-60.5-72.5,2-40,27.21-69.63,60.5-72.5C215.36,101.3,243.13,133.5,233,177.5Z"/><ellipse class="cls-7" cx="175" cy="178" rx="46" ry="47"/><ellipse class="cls-8" cx="175" cy="178" rx="42" ry="43"/><ellipse class="cls-9" cx="179.5" cy="178.5" rx="32.5" ry="34.5"/><ellipse class="cls-10" cx="193" cy="185" rx="14" ry="15"/><circle class="cls-11" cx="179" cy="171" r="9"/><path class="cls-12" d="M281.07,178c14,37.52,36.31,59.38,69.4,64,36.33,5.11,60.21-26.94,50.58-79.74-7.19-39.39-36-65.5-69.41-64C288.66,100.13,265.31,135.66,281.07,178Z"/><ellipse class="cls-13" cx="338.64" cy="170.94" rx="46" ry="47" transform="matrix(0.99, -0.13, 0.13, 0.99, -19.33, 45.42)"/><ellipse class="cls-14" cx="338.64" cy="170.94" rx="42" ry="43" transform="translate(-19.33 45.42) rotate(-7.46)"/><ellipse class="cls-15" cx="334.25" cy="172.02" rx="32.5" ry="34.5" transform="translate(-19.51 44.86) rotate(-7.46)"/><ellipse class="cls-10" cx="321.71" cy="180.22" rx="14" ry="15" transform="translate(-20.68 43.3) rotate(-7.46)"/><circle class="cls-16" cx="333.77" cy="164.52" r="9"/><path class="cls-17" d="M261.67,274.34c6.31,20.88,27.3,33,46.85,27.09a35.69,35.69,0,0,0,21.42-18.13,43.94,43.94,0,0,1-18.37,10.94c-21.19,6.41-43.21-3.75-50.68-22.84C261.11,272.37,261.37,273.36,261.67,274.34Z"/><path class="cls-18" d="M274.72,293.81c-3.51,2.5-8.77,4.41-14.78,5.06-6.88.74-13.14-.33-17.14-2.59A35.37,35.37,0,0,0,252,279a39.72,39.72,0,0,1,5.68-1,37.13,37.13,0,0,1,4.89-.22c0,.14.09.27.14.41A34.59,34.59,0,0,0,274.72,293.81Z"/><path class="cls-19" d="M253.07,272c-1.2,21.78-18.71,38.53-39.11,37.41a35.69,35.69,0,0,1-25.1-12.54,43.91,43.91,0,0,0,20.44,6.28c22.1,1.21,41.09-13.87,43.83-34.19C253.14,270,253.12,271,253.07,272Z"/><path class="cls-20" d="M271.48,291.14c-2.8-1.84-7.8-2.73-13.37-2.13-5.32.57-9.86,2.38-12.28,4.63l-.16-.11A41,41,0,0,0,252.81,275a24.72,24.72,0,0,1,4.68-1,23.94,23.94,0,0,1,4-.11c0,.16.09.31.13.46A41.22,41.22,0,0,0,271.48,291.14Z"/><path class="cls-21" d="M301,248.66c.62,5.77-18.16,23.59-43.42,26.32s-47.42-10.66-48.05-16.43,20.53-1.71,45.79-4.45S300.4,242.9,301,248.66Z"/></g></g></svg>